<svg width="17" height="20" viewBox="0 0 17 20" fill="none" xmlns="http://www.w3.org/2000/svg">
<path d="M16.1763 13.4186L15.1395 11.688C14.7682 11.0692 14.5732 10.3613 14.5732 9.6404V7.17763C14.5732 3.69388 11.7363 0.858887 8.24977 0.858887C4.7632 0.858887 1.92632 3.69294 1.92632 7.17763V9.6404C1.92632 10.3613 1.73038 11.0692 1.36006 11.688L0.3232 13.4186C-0.0377374 14.0195 -0.0461758 14.7432 0.298824 15.3526C0.644762 15.9639 1.27006 16.3286 1.97225 16.3286H5.70351C5.69601 16.4073 5.67257 16.4832 5.67257 16.5629C5.67257 17.9851 6.82851 19.1411 8.2507 19.1411C9.67288 19.1411 10.8288 17.9851 10.8288 16.5629C10.8288 16.4832 10.8054 16.4073 10.7979 16.3286H14.5291C15.2313 16.3286 15.8576 15.9638 16.2026 15.3535C16.5466 14.7432 16.5373 14.0195 16.1763 13.4186ZM9.4207 16.5629C9.4207 17.2089 8.89476 17.7348 8.24882 17.7348C7.60288 17.7348 7.07695 17.2089 7.07695 16.5629C7.07695 16.4832 7.09195 16.4054 7.10789 16.3286H9.38975C9.40569 16.4054 9.4207 16.4832 9.4207 16.5629ZM14.9773 14.6598C14.9323 14.7385 14.8001 14.9214 14.5273 14.9214H1.97038C1.6985 14.9214 1.56538 14.7385 1.52038 14.6598C1.47632 14.581 1.38726 14.3739 1.52695 14.1414L2.56382 12.4108C3.06632 11.5736 3.33069 10.6154 3.33069 9.6404V7.17763C3.33069 4.46919 5.53663 2.26514 8.24788 2.26514C10.9591 2.26514 13.1651 4.46919 13.1651 7.17763V9.6404C13.1651 10.6154 13.4304 11.5736 13.9319 12.4108L14.9688 14.1414C15.1094 14.3739 15.0213 14.581 14.9773 14.6598Z" fill="white"/>
</svg>
