<svg width="17" height="20" viewBox="0 0 17 20" fill="none" xmlns="http://www.w3.org/2000/svg">
<path d="M16.1763 13.4186L15.1394 11.688C14.7681 11.0692 14.5731 10.3613 14.5731 9.6404V7.17763C14.5731 3.69388 11.7363 0.858887 8.2497 0.858887C4.76314 0.858887 1.92626 3.69294 1.92626 7.17763V9.6404C1.92626 10.3613 1.73031 11.0692 1.36 11.688L0.323139 13.4186C-0.0377984 14.0195 -0.0462368 14.7432 0.298763 15.3526C0.644701 15.9639 1.27 16.3286 1.97219 16.3286H5.70345C5.69595 16.4073 5.67251 16.4832 5.67251 16.5629C5.67251 17.9851 6.82845 19.1411 8.25063 19.1411C9.67282 19.1411 10.8288 17.9851 10.8288 16.5629C10.8288 16.4832 10.8053 16.4073 10.7978 16.3286H14.5291C15.2313 16.3286 15.8575 15.9638 16.2025 15.3535C16.5466 14.7432 16.5372 14.0195 16.1763 13.4186ZM9.42063 16.5629C9.42063 17.2089 8.8947 17.7348 8.24876 17.7348C7.60282 17.7348 7.07688 17.2089 7.07688 16.5629C7.07688 16.4832 7.09189 16.4054 7.10783 16.3286H9.38969C9.40563 16.4054 9.42063 16.4832 9.42063 16.5629ZM14.9772 14.6598C14.9322 14.7385 14.8 14.9214 14.5272 14.9214H1.97032C1.69844 14.9214 1.56532 14.7385 1.52032 14.6598C1.47626 14.581 1.3872 14.3739 1.52689 14.1414L2.56376 12.4108C3.06626 11.5736 3.33063 10.6154 3.33063 9.6404V7.17763C3.33063 4.46919 5.53656 2.26514 8.24781 2.26514C10.9591 2.26514 13.165 4.46919 13.165 7.17763V9.6404C13.165 10.6154 13.4303 11.5736 13.9319 12.4108L14.9688 14.1414C15.1094 14.3739 15.0213 14.581 14.9772 14.6598Z" fill="white"/>
</svg>
