<svg width="28" height="30" viewBox="0 0 28 30" fill="none" xmlns="http://www.w3.org/2000/svg">
<path d="M26.6821 20.4697L25.0231 17.7008C24.4291 16.7108 24.1171 15.5782 24.1171 14.4247V10.4843C24.1171 4.91025 19.5781 0.374268 13.9996 0.374268C8.42107 0.374268 3.88206 4.90875 3.88206 10.4843V14.4247C3.88206 15.5782 3.56855 16.7108 2.97605 17.7008L1.31707 20.4697C0.739571 21.4312 0.72607 22.5892 1.27807 23.5642C1.83157 24.5422 2.83205 25.1257 3.95555 25.1257H9.92557C9.91357 25.2517 9.87606 25.3732 9.87606 25.5007C9.87606 27.7762 11.7256 29.6257 14.0011 29.6257C16.2766 29.6257 18.1261 27.7762 18.1261 25.5007C18.1261 25.3732 18.0886 25.2517 18.0766 25.1257H24.0466C25.1701 25.1257 26.1721 24.5422 26.7241 23.5657C27.2746 22.5892 27.2596 21.4312 26.6821 20.4697ZM15.8731 25.5007C15.8731 26.5342 15.0316 27.3757 13.9981 27.3757C12.9646 27.3757 12.1231 26.5342 12.1231 25.5007C12.1231 25.3732 12.1471 25.2487 12.1726 25.1257H15.8236C15.8491 25.2487 15.8731 25.3732 15.8731 25.5007ZM24.7636 22.4557C24.6916 22.5817 24.4801 22.8743 24.0436 22.8743H3.95255C3.51755 22.8743 3.30456 22.5817 3.23256 22.4557C3.16206 22.3297 3.01957 21.9982 3.24307 21.6262L4.90207 18.8573C5.70607 17.5178 6.12906 15.9847 6.12906 14.4247V10.4843C6.12906 6.15075 9.65855 2.62427 13.9966 2.62427C18.3346 2.62427 21.8641 6.15075 21.8641 10.4843V14.4247C21.8641 15.9847 22.2886 17.5178 23.0911 18.8573L24.7501 21.6262C24.9751 21.9982 24.8341 22.3297 24.7636 22.4557Z" fill="white"/>
</svg>
