<svg width="17" height="20" viewBox="0 0 17 20" fill="none" xmlns="http://www.w3.org/2000/svg">
<path d="M16.1762 13.4184L15.1393 11.6879C14.7681 11.0691 14.5731 10.3612 14.5731 9.64028V7.17751C14.5731 3.69376 11.7362 0.858765 8.24964 0.858765C4.76308 0.858765 1.92619 3.69282 1.92619 7.17751V9.64028C1.92619 10.3612 1.73025 11.0691 1.35994 11.6879L0.323078 13.4184C-0.0378595 14.0194 -0.0462979 14.7431 0.298702 15.3525C0.64464 15.9637 1.26994 16.3284 1.97213 16.3284H5.70339C5.69589 16.4072 5.67245 16.4831 5.67245 16.5628C5.67245 17.985 6.82838 19.1409 8.25057 19.1409C9.67276 19.1409 10.8287 17.985 10.8287 16.5628C10.8287 16.4831 10.8053 16.4072 10.7978 16.3284H14.529C15.2312 16.3284 15.8574 15.9637 16.2024 15.3534C16.5465 14.7431 16.5371 14.0194 16.1762 13.4184ZM9.42057 16.5628C9.42057 17.2087 8.89464 17.7347 8.2487 17.7347C7.60276 17.7347 7.07682 17.2087 7.07682 16.5628C7.07682 16.4831 7.09183 16.4053 7.10776 16.3284H9.38963C9.40557 16.4053 9.42057 16.4831 9.42057 16.5628ZM14.9771 14.6597C14.9321 14.7384 14.8 14.9213 14.5271 14.9213H1.97025C1.69838 14.9213 1.56526 14.7384 1.52026 14.6597C1.4762 14.5809 1.38714 14.3737 1.52682 14.1412L2.5637 12.4107C3.0662 11.5735 3.33057 10.6153 3.33057 9.64028V7.17751C3.33057 4.46907 5.5365 2.26501 8.24775 2.26501C10.959 2.26501 13.165 4.46907 13.165 7.17751V9.64028C13.165 10.6153 13.4303 11.5735 13.9318 12.4107L14.9687 14.1412C15.1093 14.3737 15.0212 14.5809 14.9771 14.6597Z" fill="white"/>
</svg>
