<svg width="16" height="16" viewBox="0 0 16 16" fill="none" xmlns="http://www.w3.org/2000/svg">
<path d="M7.75 5.70313V10.5781L9.71875 11.7813L9.20312 9.53125L10.9375 8.03125L8.65625 7.82812L7.75 5.70313ZM7.75 12.0469L5.15625 13.6094C5.04166 13.6823 4.92187 13.7135 4.79687 13.7031C4.67187 13.6927 4.5625 13.651 4.46875 13.5781C4.375 13.5052 4.30208 13.4142 4.25 13.305C4.19791 13.1954 4.1875 13.0729 4.21875 12.9375L4.90625 9.98438L2.60937 8C2.50521 7.90625 2.44021 7.79937 2.41437 7.67937C2.38812 7.55979 2.39583 7.44271 2.4375 7.32813C2.47916 7.21354 2.54166 7.11979 2.625 7.04687C2.70833 6.97396 2.82291 6.92708 2.96875 6.90625L6 6.64063L7.17187 3.85938C7.22396 3.73438 7.30479 3.64063 7.41437 3.57813C7.52354 3.51563 7.63541 3.48438 7.75 3.48438C7.86458 3.48438 7.97667 3.51563 8.08625 3.57813C8.19542 3.64063 8.27604 3.73438 8.32812 3.85938L9.5 6.64063L12.5312 6.90625C12.6771 6.92708 12.7917 6.97396 12.875 7.04687C12.9583 7.11979 13.0208 7.21354 13.0625 7.32813C13.1042 7.44271 13.1121 7.55979 13.0862 7.67937C13.06 7.79937 12.9948 7.90625 12.8906 8L10.5937 9.98438L11.2812 12.9375C11.3125 13.0729 11.3021 13.1954 11.25 13.305C11.1979 13.4142 11.125 13.5052 11.0312 13.5781C10.9375 13.651 10.8281 13.6927 10.7031 13.7031C10.5781 13.7135 10.4583 13.6823 10.3437 13.6094L7.75 12.0469Z" fill="white"/>
</svg>
