<svg width="16" height="16" viewBox="0 0 16 16" fill="none" xmlns="http://www.w3.org/2000/svg">
<path d="M6.3125 11.75C6.19792 11.6354 6.14062 11.4896 6.14062 11.3125C6.14062 11.1354 6.19792 10.9896 6.3125 10.875L8.75 8.4375L6.3125 6C6.19792 5.88542 6.14062 5.73958 6.14062 5.5625C6.14062 5.38542 6.19792 5.23958 6.3125 5.125C6.42708 5.01042 6.57292 4.95312 6.75 4.95312C6.92708 4.95312 7.07292 5.01042 7.1875 5.125L10.0625 8C10.125 8.0625 10.1694 8.13021 10.1956 8.20312C10.2215 8.27604 10.2344 8.35417 10.2344 8.4375C10.2344 8.52083 10.2215 8.59896 10.1956 8.67187C10.1694 8.74479 10.125 8.8125 10.0625 8.875L7.1875 11.75C7.07292 11.8646 6.92708 11.9219 6.75 11.9219C6.57292 11.9219 6.42708 11.8646 6.3125 11.75V11.75Z" fill="black"/>
</svg>
