<svg width="19" height="20" viewBox="0 0 19 20" fill="none" xmlns="http://www.w3.org/2000/svg">
<path d="M9.46018 6.87459V12.9943L11.9316 14.5046L11.2843 11.6801L13.4615 9.79714L10.5978 9.54215L9.46018 6.87459ZM9.46018 14.838L6.2042 16.7995C6.06036 16.891 5.90998 16.9302 5.75307 16.9171C5.59615 16.9041 5.45885 16.8518 5.34116 16.7602C5.22348 16.6687 5.13194 16.5544 5.06656 16.4174C5.00118 16.2798 4.98811 16.126 5.02733 15.956L5.89037 12.2489L3.00706 9.75791C2.87629 9.64022 2.7947 9.50606 2.76227 9.35542C2.72932 9.2053 2.73899 9.05833 2.7913 8.91449C2.8436 8.77065 2.92206 8.65296 3.02667 8.56143C3.13128 8.4699 3.27512 8.41105 3.45819 8.3849L7.26337 8.05146L8.73445 4.5601C8.79983 4.40319 8.9013 4.2855 9.03886 4.20704C9.1759 4.12858 9.31634 4.08936 9.46018 4.08936C9.60402 4.08936 9.74472 4.12858 9.88228 4.20704C10.0193 4.2855 10.1205 4.40319 10.1859 4.5601L11.657 8.05146L15.4622 8.3849C15.6452 8.41105 15.7891 8.4699 15.8937 8.56143C15.9983 8.65296 16.0768 8.77065 16.1291 8.91449C16.1814 9.05833 16.1913 9.2053 16.1589 9.35542C16.1259 9.50606 16.0441 9.64022 15.9133 9.75791L13.03 12.2489L13.893 15.956C13.9323 16.126 13.9192 16.2798 13.8538 16.4174C13.7884 16.5544 13.6969 16.6687 13.5792 16.7602C13.4615 16.8518 13.3242 16.9041 13.1673 16.9171C13.0104 16.9302 12.86 16.891 12.7162 16.7995L9.46018 14.838Z" fill="black"/>
</svg>
