<svg width="16" height="16" viewBox="0 0 16 16" fill="none" xmlns="http://www.w3.org/2000/svg">
<path d="M6.3125 11.7502C6.19792 11.6356 6.14062 11.4897 6.14062 11.3127C6.14062 11.1356 6.19792 10.9897 6.3125 10.8752L8.75 8.43765L6.3125 6.00015C6.19792 5.88557 6.14062 5.73974 6.14062 5.56265C6.14062 5.38557 6.19792 5.23974 6.3125 5.12515C6.42708 5.01057 6.57292 4.95328 6.75 4.95328C6.92708 4.95328 7.07292 5.01057 7.1875 5.12515L10.0625 8.00015C10.125 8.06265 10.1694 8.13036 10.1956 8.20328C10.2215 8.27619 10.2344 8.35432 10.2344 8.43765C10.2344 8.52099 10.2215 8.59911 10.1956 8.67203C10.1694 8.74494 10.125 8.81265 10.0625 8.87515L7.1875 11.7502C7.07292 11.8647 6.92708 11.922 6.75 11.922C6.57292 11.922 6.42708 11.8647 6.3125 11.7502V11.7502Z" fill="black"/>
</svg>
