<svg width="16" height="16" viewBox="0 0 16 16" fill="none" xmlns="http://www.w3.org/2000/svg">
<path d="M6.3125 11.7499C6.19792 11.6353 6.14062 11.4895 6.14062 11.3124C6.14062 11.1353 6.19792 10.9895 6.3125 10.8749L8.75 8.43738L6.3125 5.99988C6.19792 5.88529 6.14062 5.73946 6.14062 5.56238C6.14062 5.38529 6.19792 5.23946 6.3125 5.12488C6.42708 5.01029 6.57292 4.953 6.75 4.953C6.92708 4.953 7.07292 5.01029 7.1875 5.12488L10.0625 7.99988C10.125 8.06238 10.1694 8.13009 10.1956 8.203C10.2215 8.27592 10.2344 8.35404 10.2344 8.43738C10.2344 8.52071 10.2215 8.59884 10.1956 8.67175C10.1694 8.74467 10.125 8.81238 10.0625 8.87488L7.1875 11.7499C7.07292 11.8645 6.92708 11.9218 6.75 11.9218C6.57292 11.9218 6.42708 11.8645 6.3125 11.7499V11.7499Z" fill="black"/>
</svg>
