<svg width="24" height="25" viewBox="0 0 24 25" fill="none" xmlns="http://www.w3.org/2000/svg">
<path d="M8.70005 17.8C8.51672 17.6167 8.42505 17.3833 8.42505 17.1C8.42505 16.8167 8.51672 16.5833 8.70005 16.4L12.6 12.5L8.70005 8.59999C8.51672 8.41665 8.42505 8.18332 8.42505 7.89999C8.42505 7.61665 8.51672 7.38332 8.70005 7.19999C8.88338 7.01665 9.11671 6.92499 9.40005 6.92499C9.68338 6.92499 9.91672 7.01665 10.1 7.19999L14.7 11.8C14.8 11.9 14.871 12.0083 14.913 12.125C14.9544 12.2417 14.975 12.3667 14.975 12.5C14.975 12.6333 14.9544 12.7583 14.913 12.875C14.871 12.9917 14.8 13.1 14.7 13.2L10.1 17.8C9.91672 17.9833 9.68338 18.075 9.40005 18.075C9.11671 18.075 8.88338 17.9833 8.70005 17.8V17.8Z" fill="black"/>
</svg>
