<svg width="20" height="20" viewBox="0 0 20 20" fill="none" xmlns="http://www.w3.org/2000/svg">
<path d="M9.71018 6.87459V12.9943L12.1816 14.5046L11.5343 11.6801L13.7115 9.79714L10.8478 9.54215L9.71018 6.87459ZM9.71018 14.838L6.4542 16.7995C6.31036 16.891 6.15998 16.9302 6.00307 16.9171C5.84615 16.9041 5.70885 16.8518 5.59116 16.7602C5.47348 16.6687 5.38194 16.5544 5.31656 16.4174C5.25118 16.2798 5.23811 16.126 5.27733 15.956L6.14037 12.2489L3.25706 9.75791C3.12629 9.64022 3.0447 9.50606 3.01227 9.35542C2.97932 9.2053 2.98899 9.05833 3.0413 8.91449C3.0936 8.77065 3.17206 8.65296 3.27667 8.56143C3.38128 8.4699 3.52512 8.41105 3.70819 8.3849L7.51337 8.05146L8.98445 4.5601C9.04983 4.40319 9.1513 4.2855 9.28886 4.20704C9.4259 4.12858 9.56634 4.08936 9.71018 4.08936C9.85402 4.08936 9.99472 4.12858 10.1323 4.20704C10.2693 4.2855 10.3705 4.40319 10.4359 4.5601L11.907 8.05146L15.7122 8.3849C15.8952 8.41105 16.0391 8.4699 16.1437 8.56143C16.2483 8.65296 16.3268 8.77065 16.3791 8.91449C16.4314 9.05833 16.4413 9.2053 16.4089 9.35542C16.3759 9.50606 16.2941 9.64022 16.1633 9.75791L13.28 12.2489L14.143 15.956C14.1823 16.126 14.1692 16.2798 14.1038 16.4174C14.0384 16.5544 13.9469 16.6687 13.8292 16.7602C13.7115 16.8518 13.5742 16.9041 13.4173 16.9171C13.2604 16.9302 13.11 16.891 12.9662 16.7995L9.71018 14.838Z" fill="black"/>
</svg>
