<svg width="20" height="20" viewBox="0 0 20 20" fill="none" xmlns="http://www.w3.org/2000/svg">
<path d="M10.2101 6.87459V12.9943L12.6816 14.5046L12.0343 11.6801L14.2115 9.79714L11.3478 9.54215L10.2101 6.87459ZM10.2101 14.838L6.95417 16.7995C6.81033 16.891 6.65995 16.9302 6.50304 16.9171C6.34612 16.9041 6.20882 16.8518 6.09113 16.7602C5.97345 16.6687 5.88191 16.5544 5.81653 16.4174C5.75115 16.2798 5.73808 16.126 5.7773 15.956L6.64034 12.2489L3.75702 9.75791C3.62626 9.64022 3.54467 9.50606 3.51224 9.35542C3.47929 9.2053 3.48896 9.05833 3.54127 8.91449C3.59357 8.77065 3.67203 8.65296 3.77664 8.56143C3.88125 8.4699 4.02509 8.41105 4.20816 8.3849L8.01334 8.05146L9.48442 4.5601C9.5498 4.40319 9.65127 4.2855 9.78883 4.20704C9.92587 4.12858 10.0663 4.08936 10.2101 4.08936C10.354 4.08936 10.4947 4.12858 10.6323 4.20704C10.7693 4.2855 10.8705 4.40319 10.9359 4.5601L12.407 8.05146L16.2121 8.3849C16.3952 8.41105 16.5391 8.4699 16.6437 8.56143C16.7483 8.65296 16.8267 8.77065 16.879 8.91449C16.9313 9.05833 16.9413 9.2053 16.9088 9.35542C16.8759 9.50606 16.794 9.64022 16.6633 9.75791L13.78 12.2489L14.643 15.956C14.6822 16.126 14.6691 16.2798 14.6038 16.4174C14.5384 16.5544 14.4469 16.6687 14.3292 16.7602C14.2115 16.8518 14.0742 16.9041 13.9173 16.9171C13.7603 16.9302 13.61 16.891 13.4661 16.7995L10.2101 14.838Z" fill="black"/>
</svg>
