<svg width="19" height="20" viewBox="0 0 19 20" fill="none" xmlns="http://www.w3.org/2000/svg">
<path d="M8.57858 12.8135V15.626C8.57858 16.0142 8.26358 16.3292 7.87546 16.3292C7.48733 16.3292 7.17233 16.0142 7.17233 15.626V12.8135C7.17233 12.4254 7.48733 12.1104 7.87546 12.1104C8.26358 12.1104 8.57858 12.4254 8.57858 12.8135ZM11.6255 12.1104C11.2373 12.1104 10.9223 12.4254 10.9223 12.8135V15.626C10.9223 16.0142 11.2373 16.3292 11.6255 16.3292C12.0136 16.3292 12.3286 16.0142 12.3286 15.626V12.8135C12.3286 12.4254 12.0136 12.1104 11.6255 12.1104ZM17.4351 10.436L16.7161 16.0704C16.4929 17.8207 14.9939 19.1407 13.2286 19.1407H6.29297C4.53422 19.1407 3.03514 17.8254 2.80733 16.0816L2.06669 10.436C1.207 10.017 0.608887 9.14325 0.608887 8.12512C0.608887 6.70294 1.76482 5.547 3.18701 5.547H4.66453L7.27169 1.20076C7.47138 0.867949 7.90359 0.759124 8.2364 0.959749C8.56921 1.15944 8.67795 1.59167 8.47733 1.92449L6.30327 5.547H13.1948L11.0208 1.92449C10.8211 1.59167 10.9289 1.15944 11.2617 0.959749C11.5936 0.760062 12.0258 0.867949 12.2264 1.20076L14.8336 5.547H16.313C17.7351 5.547 18.8911 6.70294 18.8911 8.12512C18.8911 9.14325 18.2939 10.017 17.4351 10.436ZM15.983 10.7042H3.52078L4.20233 15.8998C4.33921 16.946 5.23828 17.7354 6.29297 17.7354H13.2286C14.287 17.7354 15.187 16.9433 15.3202 15.8933L15.983 10.7042ZM17.4848 8.12604C17.4848 7.4801 16.9589 6.95416 16.313 6.95416H3.18796C2.54202 6.95416 2.01608 7.4801 2.01608 8.12604C2.01608 8.77198 2.54202 9.29791 3.18796 9.29791H16.313C16.9589 9.29791 17.4848 8.77198 17.4848 8.12604Z" fill="white"/>
</svg>
