<svg width="19" height="20" viewBox="0 0 19 20" fill="none" xmlns="http://www.w3.org/2000/svg">
<path d="M8.5786 12.8137V15.6262C8.5786 16.0143 8.2636 16.3293 7.87547 16.3293C7.48735 16.3293 7.17235 16.0143 7.17235 15.6262V12.8137C7.17235 12.4256 7.48735 12.1106 7.87547 12.1106C8.2636 12.1106 8.5786 12.4256 8.5786 12.8137ZM11.6255 12.1106C11.2373 12.1106 10.9223 12.4256 10.9223 12.8137V15.6262C10.9223 16.0143 11.2373 16.3293 11.6255 16.3293C12.0136 16.3293 12.3286 16.0143 12.3286 15.6262V12.8137C12.3286 12.4256 12.0136 12.1106 11.6255 12.1106ZM17.4352 10.4362L16.7161 16.0706C16.493 17.8209 14.9939 19.1409 13.2286 19.1409H6.29298C4.53423 19.1409 3.03515 17.8256 2.80734 16.0818L2.06671 10.4362C1.20702 10.0172 0.608902 9.14343 0.608902 8.12531C0.608902 6.70312 1.76484 5.54718 3.18703 5.54718H4.66455L7.27171 1.20094C7.4714 0.868132 7.90361 0.759307 8.23642 0.959932C8.56923 1.15962 8.67797 1.59186 8.47734 1.92467L6.30328 5.54718H13.1949L11.0208 1.92467C10.8211 1.59186 10.9289 1.15962 11.2617 0.959932C11.5936 0.760245 12.0258 0.868132 12.2264 1.20094L14.8336 5.54718H16.313C17.7352 5.54718 18.8911 6.70312 18.8911 8.12531C18.8911 9.14343 18.2939 10.0172 17.4352 10.4362ZM15.983 10.7043H3.52079L4.20235 15.9C4.33922 16.9462 5.23829 17.7356 6.29298 17.7356H13.2286C14.287 17.7356 15.187 16.9434 15.3202 15.8934L15.983 10.7043ZM17.4848 8.12622C17.4848 7.48028 16.9589 6.95435 16.313 6.95435H3.18797C2.54203 6.95435 2.0161 7.48028 2.0161 8.12622C2.0161 8.77216 2.54203 9.2981 3.18797 9.2981H16.313C16.9589 9.2981 17.4848 8.77216 17.4848 8.12622Z" fill="white"/>
</svg>
