<svg width="30" height="30" viewBox="0 0 30 30" fill="none" xmlns="http://www.w3.org/2000/svg">
<path d="M13.1258 19.5018V24.0018C13.1258 24.6228 12.6218 25.1268 12.0008 25.1268C11.3798 25.1268 10.8758 24.6228 10.8758 24.0018V19.5018C10.8758 18.8808 11.3798 18.3768 12.0008 18.3768C12.6218 18.3768 13.1258 18.8808 13.1258 19.5018ZM18.0008 18.3768C17.3798 18.3768 16.8758 18.8808 16.8758 19.5018V24.0018C16.8758 24.6228 17.3798 25.1268 18.0008 25.1268C18.6218 25.1268 19.1258 24.6228 19.1258 24.0018V19.5018C19.1258 18.8808 18.6218 18.3768 18.0008 18.3768ZM27.2963 15.6978L26.1458 24.7128C25.7888 27.5133 23.3903 29.6254 20.5658 29.6254H9.4688C6.6548 29.6254 4.25627 27.5208 3.89177 24.7308L2.70676 15.6978C1.33126 15.0273 0.374268 13.6294 0.374268 12.0004C0.374268 9.72485 2.22377 7.87535 4.49927 7.87535H6.8633L11.0348 0.921371C11.3543 0.388871 12.0458 0.214751 12.5783 0.535751C13.1108 0.855251 13.2848 1.54683 12.9638 2.07933L9.48528 7.87535H20.5118L17.0333 2.07933C16.7138 1.54683 16.8863 0.855251 17.4188 0.535751C17.9498 0.216251 18.6413 0.388871 18.9623 0.921371L23.1338 7.87535H25.5008C27.7763 7.87535 29.6258 9.72485 29.6258 12.0004C29.6258 13.6294 28.6703 15.0273 27.2963 15.6978ZM24.9728 16.1268H5.03329L6.12378 24.4398C6.34278 26.1138 7.7813 27.3768 9.4688 27.3768H20.5658C22.2593 27.3768 23.6993 26.1094 23.9123 24.4294L24.9728 16.1268ZM27.3758 12.0018C27.3758 10.9683 26.5343 10.1268 25.5008 10.1268H4.50078C3.46728 10.1268 2.62578 10.9683 2.62578 12.0018C2.62578 13.0353 3.46728 13.8768 4.50078 13.8768H25.5008C26.5343 13.8768 27.3758 13.0353 27.3758 12.0018Z" fill="white"/>
</svg>
