<svg width="19" height="20" viewBox="0 0 19 20" fill="none" xmlns="http://www.w3.org/2000/svg">
<path d="M8.57858 12.8136V15.6261C8.57858 16.0142 8.26358 16.3292 7.87546 16.3292C7.48733 16.3292 7.17233 16.0142 7.17233 15.6261V12.8136C7.17233 12.4255 7.48733 12.1105 7.87546 12.1105C8.26358 12.1105 8.57858 12.4255 8.57858 12.8136ZM11.6255 12.1105C11.2373 12.1105 10.9223 12.4255 10.9223 12.8136V15.6261C10.9223 16.0142 11.2373 16.3292 11.6255 16.3292C12.0136 16.3292 12.3286 16.0142 12.3286 15.6261V12.8136C12.3286 12.4255 12.0136 12.1105 11.6255 12.1105ZM17.4351 10.4361L16.7161 16.0705C16.493 17.8208 14.9939 19.1408 13.2286 19.1408H6.29297C4.53422 19.1408 3.03514 17.8254 2.80733 16.0817L2.06669 10.4361C1.207 10.017 0.608887 9.14331 0.608887 8.12519C0.608887 6.703 1.76482 5.54706 3.18701 5.54706H4.66453L7.2717 1.20082C7.47138 0.86801 7.90359 0.759185 8.2364 0.95981C8.56922 1.1595 8.67796 1.59173 8.47733 1.92455L6.30327 5.54706H13.1948L11.0208 1.92455C10.8211 1.59173 10.9289 1.1595 11.2617 0.95981C11.5936 0.760123 12.0258 0.86801 12.2264 1.20082L14.8336 5.54706H16.313C17.7351 5.54706 18.8911 6.703 18.8911 8.12519C18.8911 9.14331 18.2939 10.017 17.4351 10.4361ZM15.983 10.7042H3.52078L4.20233 15.8998C4.33921 16.9461 5.23828 17.7355 6.29297 17.7355H13.2286C14.287 17.7355 15.187 16.9433 15.3202 15.8933L15.983 10.7042ZM17.4848 8.1261C17.4848 7.48016 16.9589 6.95423 16.313 6.95423H3.18796C2.54202 6.95423 2.01608 7.48016 2.01608 8.1261C2.01608 8.77204 2.54202 9.29798 3.18796 9.29798H16.313C16.9589 9.29798 17.4848 8.77204 17.4848 8.1261Z" fill="white"/>
</svg>
