<svg width="20" height="19" viewBox="0 0 20 19" fill="none" xmlns="http://www.w3.org/2000/svg">
<path d="M11.5625 4.9375C11.5625 4.7303 11.4802 4.53159 11.3337 4.38507C11.1872 4.23856 10.9885 4.15625 10.7812 4.15625H9.21875C9.01155 4.15625 8.81284 4.23856 8.66632 4.38507C8.51981 4.53159 8.4375 4.7303 8.4375 4.9375V9.625C8.4375 9.8322 8.51981 10.0309 8.66632 10.1774C8.81284 10.3239 9.01155 10.4062 9.21875 10.4062H10.7812C10.9885 10.4062 11.1872 10.3239 11.3337 10.1774C11.4802 10.0309 11.5625 9.8322 11.5625 9.625V8.0625C11.5625 7.8553 11.4802 7.65659 11.3337 7.51007C11.1872 7.36356 10.9885 7.28125 10.7812 7.28125H8.4375M2.96875 4.15625H4.92188C5.23268 4.15625 5.53075 4.27971 5.75052 4.49948C5.97029 4.71925 6.09375 5.01732 6.09375 5.32812V6.10938C6.09375 6.42018 5.97029 6.71825 5.75052 6.93802C5.53075 7.15779 5.23268 7.28125 4.92188 7.28125H3.75H4.92188C5.23268 7.28125 5.53075 7.40471 5.75052 7.62448C5.97029 7.84425 6.09375 8.14232 6.09375 8.45312V9.23438C6.09375 9.54518 5.97029 9.84325 5.75052 10.063C5.53075 10.2828 5.23268 10.4062 4.92188 10.4062H2.96875M2.96875 12.75C2.96875 14.0445 6.11719 15.0938 10 15.0938C13.8828 15.0938 17.0312 14.0445 17.0312 12.75M13.9062 5.71875V8.84375C13.9062 9.25815 14.0709 9.65558 14.3639 9.9486C14.6569 10.2416 15.0543 10.4062 15.4688 10.4062C15.8832 10.4062 16.2806 10.2416 16.5736 9.9486C16.8666 9.65558 17.0312 9.25815 17.0312 8.84375V5.71875C17.0312 5.30435 16.8666 4.90692 16.5736 4.6139C16.2806 4.32087 15.8832 4.15625 15.4688 4.15625C15.0543 4.15625 14.6569 4.32087 14.3639 4.6139C14.0709 4.90692 13.9062 5.30435 13.9062 5.71875V5.71875Z" stroke="white" stroke-width="1.25" stroke-linecap="round" stroke-linejoin="round"/>
</svg>
