<svg width="16" height="17" viewBox="0 0 16 17" fill="none" xmlns="http://www.w3.org/2000/svg">
<path d="M7.15646 13.3718H4.33379V16.5132H7.24751C8.44639 16.5132 9.55422 16.3159 10.571 15.9213C11.6029 15.5268 12.4983 14.9728 13.2571 14.2596C14.0159 13.5463 14.6001 12.6965 15.0099 11.7101C15.4348 10.7237 15.6472 9.64618 15.6472 8.47765C15.6472 7.29395 15.4348 6.21648 15.0099 5.24524C14.6001 4.25882 14.0083 3.40898 13.2343 2.69572C12.4755 1.96729 11.5802 1.41338 10.5482 1.03399C9.53145 0.639422 8.41604 0.442139 7.20199 0.442139H0.759918V6.55414H4.33379L4.33379 3.56074H7.15646C8.1277 3.56074 8.96995 3.75802 9.68321 4.15259C10.4116 4.54716 10.9731 5.10866 11.3677 5.83709C11.7775 6.56552 11.9823 7.43812 11.9823 8.45489C11.9823 9.47166 11.785 10.3518 11.3905 11.0955C10.9959 11.8391 10.4344 12.4082 9.70597 12.8027C8.97754 13.1821 8.1277 13.3718 7.15646 13.3718Z" fill="white"/>
<path d="M7.15646 13.3718H4.33379V16.5132H7.24751C8.44639 16.5132 9.55422 16.3159 10.571 15.9213C11.6029 15.5268 12.4983 14.9728 13.2571 14.2596C14.0159 13.5463 14.6001 12.6965 15.0099 11.7101C15.4348 10.7237 15.6472 9.64618 15.6472 8.47765C15.6472 7.29395 15.4348 6.21648 15.0099 5.24524C14.6001 4.25882 14.0083 3.40898 13.2343 2.69572C12.4755 1.96729 11.5802 1.41338 10.5482 1.03399C9.53145 0.639422 8.41604 0.442139 7.20199 0.442139H0.759918V6.55414H4.33379L4.33379 3.56074H7.15646C8.1277 3.56074 8.96995 3.75802 9.68321 4.15259C10.4116 4.54716 10.9731 5.10866 11.3677 5.83709C11.7775 6.56552 11.9823 7.43812 11.9823 8.45489C11.9823 9.47166 11.785 10.3518 11.3905 11.0955C10.9959 11.8391 10.4344 12.4082 9.70597 12.8027C8.97754 13.1821 8.1277 13.3718 7.15646 13.3718Z" fill="url(#paint0_linear_42_241)"/>
<path d="M4.33379 7.69231H0.776991L2.48425 11.8182L4.33379 7.69231Z" fill="white"/>
<path d="M4.33379 7.69231H0.776991L2.48425 11.8182L4.33379 7.69231Z" fill="url(#paint1_linear_42_241)"/>
<defs>
<linearGradient id="paint0_linear_42_241" x1="-10.5674" y1="2.34529" x2="13.085" y2="22.3305" gradientUnits="userSpaceOnUse">
<stop offset="0.115933" stop-color="#FB0EC9"/>
<stop offset="0.337661" stop-color="#BE3554"/>
<stop offset="0.587105" stop-color="#6D5DD7"/>
<stop offset="0.75736" stop-color="#25DF90"/>
</linearGradient>
<linearGradient id="paint1_linear_42_241" x1="-10.5674" y1="2.34529" x2="13.085" y2="22.3305" gradientUnits="userSpaceOnUse">
<stop offset="0.115933" stop-color="#FB0EC9"/>
<stop offset="0.337661" stop-color="#BE3554"/>
<stop offset="0.587105" stop-color="#6D5DD7"/>
<stop offset="0.75736" stop-color="#25DF90"/>
</linearGradient>
</defs>
</svg>
