<svg width="1719" height="421" viewBox="0 0 1719 421" fill="none" xmlns="http://www.w3.org/2000/svg">
<g opacity="0.7" filter="url(#filter0_f_3_87)">
<path d="M860.605 342.7C803.769 414.358 572.452 325.627 343.943 144.513C115.434 -36.6008 -23.7345 -241.513 33.1011 -313.171C89.9367 -384.829 321.254 -296.098 549.763 -114.984C778.271 66.13 917.44 271.042 860.605 342.7Z" fill="#0041BE"/>
<path d="M1302.69 73.8675C1327.14 126.701 1217.63 229.362 1058.07 303.166C898.516 376.971 749.346 393.971 724.89 341.137C700.433 288.304 809.952 185.643 969.507 111.839C1129.06 38.0343 1278.23 21.0339 1302.69 73.8675Z" fill="#0041BE"/>
<path d="M1092.2 829.5C1020.45 1122.27 546.343 1257.75 33.2581 1132.09C-479.826 1006.43 -837.596 667.225 -765.844 374.451C-694.091 81.6782 -219.986 -53.7955 293.098 71.8626C806.183 197.521 1163.95 536.726 1092.2 829.5Z" fill="#00E5E0"/>
<path d="M1303.16 360.608C1326.95 445.158 1225.69 547.58 1077 589.373C928.318 631.167 788.503 596.505 764.721 511.954C740.939 427.403 842.194 324.981 990.881 283.188C1139.57 241.395 1279.38 276.057 1303.16 360.608Z" fill="#00BCC2"/>
<path d="M996.076 328.576C1034.58 368.99 959.084 503.337 827.455 628.648C695.827 753.959 557.91 822.781 519.408 782.367C480.906 741.953 556.4 607.606 688.028 482.295C819.656 356.984 957.574 288.162 996.076 328.576Z" fill="#00FF66"/>
<path d="M1128.47 337.117C1166.97 377.531 1091.47 511.878 959.846 637.189C828.218 762.5 690.3 831.322 651.798 790.908C613.297 750.494 688.79 616.147 820.418 490.836C952.047 365.525 1089.96 296.703 1128.47 337.117Z" fill="#D6FFEE"/>
<path d="M1817.61 106.056C1868.97 247.456 1720.56 431.063 1486.12 516.153C1251.69 601.243 1020.01 555.594 968.65 414.194C917.291 272.794 1065.7 89.1869 1300.14 4.09675C1534.57 -80.9934 1766.25 -35.3449 1817.61 106.056Z" fill="#FF589C"/>
<path d="M2169.75 630.707C2169.75 769.241 1848.57 881.545 1452.37 881.545C1056.18 881.545 735.001 769.241 735.001 630.707C735.001 492.174 1056.18 379.87 1452.37 379.87C1848.57 379.87 2169.75 492.174 2169.75 630.707Z" fill="#FFB000"/>
<path d="M2233.34 281.344C2262.15 367.605 2117.57 493.568 1910.42 562.691C1703.27 631.813 1511.99 617.92 1483.19 531.66C1454.38 445.399 1598.96 319.436 1806.11 250.313C2013.26 181.191 2204.54 195.084 2233.34 281.344Z" fill="#FFB000"/>
<path d="M1849.96 38.3774C1878.47 69.5934 1825.15 164.663 1730.86 250.721C1636.57 336.78 1537.02 381.238 1508.51 350.022C1480 318.806 1533.32 223.736 1627.61 137.678C1721.9 51.6197 1821.45 7.16131 1849.96 38.3774Z" fill="#FF0024"/>
</g>
<defs>
<filter id="filter0_f_3_87" x="-975" y="-538" width="3412" height="1917" filterUnits="userSpaceOnUse" color-interpolation-filters="sRGB">
<feFlood flood-opacity="0" result="BackgroundImageFix"/>
<feBlend mode="normal" in="SourceGraphic" in2="BackgroundImageFix" result="shape"/>
<feGaussianBlur stdDeviation="100" result="effect1_foregroundBlur_3_87"/>
</filter>
</defs>
</svg>
