<svg width="16" height="17" viewBox="0 0 16 17" fill="none" xmlns="http://www.w3.org/2000/svg">
<path d="M7.15655 13.2469H4.33388V16.3883H7.24761C8.44648 16.3883 9.55431 16.191 10.5711 15.7964C11.603 15.4019 12.4984 14.848 13.2572 14.1347C14.016 13.4214 14.6002 12.5716 15.01 11.5852C15.4349 10.5988 15.6473 9.5213 15.6473 8.35278C15.6473 7.16907 15.4349 6.0916 15.01 5.12036C14.6002 4.13394 14.0084 3.2841 13.2344 2.57085C12.4756 1.84241 11.5803 1.2885 10.5483 0.909112C9.53154 0.514545 8.41613 0.317261 7.20208 0.317261H0.76001V6.42926H4.33388L4.33388 3.43586H7.15655C8.12779 3.43586 8.97004 3.63314 9.6833 4.02771C10.4117 4.42228 10.9732 4.98378 11.3678 5.71221C11.7775 6.44064 11.9824 7.31324 11.9824 8.33001C11.9824 9.34678 11.7851 10.227 11.3906 10.9706C10.996 11.7142 10.4345 12.2833 9.70606 12.6778C8.97763 13.0572 8.12779 13.2469 7.15655 13.2469Z" fill="white"/>
<path d="M7.15655 13.2469H4.33388V16.3883H7.24761C8.44648 16.3883 9.55431 16.191 10.5711 15.7964C11.603 15.4019 12.4984 14.848 13.2572 14.1347C14.016 13.4214 14.6002 12.5716 15.01 11.5852C15.4349 10.5988 15.6473 9.5213 15.6473 8.35278C15.6473 7.16907 15.4349 6.0916 15.01 5.12036C14.6002 4.13394 14.0084 3.2841 13.2344 2.57085C12.4756 1.84241 11.5803 1.2885 10.5483 0.909112C9.53154 0.514545 8.41613 0.317261 7.20208 0.317261H0.76001V6.42926H4.33388L4.33388 3.43586H7.15655C8.12779 3.43586 8.97004 3.63314 9.6833 4.02771C10.4117 4.42228 10.9732 4.98378 11.3678 5.71221C11.7775 6.44064 11.9824 7.31324 11.9824 8.33001C11.9824 9.34678 11.7851 10.227 11.3906 10.9706C10.996 11.7142 10.4345 12.2833 9.70606 12.6778C8.97763 13.0572 8.12779 13.2469 7.15655 13.2469Z" fill="url(#paint0_linear_42_502)"/>
<path d="M4.33388 7.56744H0.777082L2.48434 11.6933L4.33388 7.56744Z" fill="white"/>
<path d="M4.33388 7.56744H0.777082L2.48434 11.6933L4.33388 7.56744Z" fill="url(#paint1_linear_42_502)"/>
<defs>
<linearGradient id="paint0_linear_42_502" x1="-10.5673" y1="2.22041" x2="13.0851" y2="22.2056" gradientUnits="userSpaceOnUse">
<stop offset="0.115933" stop-color="#FB0EC9"/>
<stop offset="0.337661" stop-color="#BE3554"/>
<stop offset="0.587105" stop-color="#6D5DD7"/>
<stop offset="0.75736" stop-color="#25DF90"/>
</linearGradient>
<linearGradient id="paint1_linear_42_502" x1="-10.5673" y1="2.22041" x2="13.0851" y2="22.2056" gradientUnits="userSpaceOnUse">
<stop offset="0.115933" stop-color="#FB0EC9"/>
<stop offset="0.337661" stop-color="#BE3554"/>
<stop offset="0.587105" stop-color="#6D5DD7"/>
<stop offset="0.75736" stop-color="#25DF90"/>
</linearGradient>
</defs>
</svg>
