<svg width="25" height="27" viewBox="0 0 25 27" fill="none" xmlns="http://www.w3.org/2000/svg">
<path d="M11.0504 21.395H6.53411V26.4212H11.1961C13.1143 26.4212 14.8868 26.1055 16.5136 25.4742C18.1647 24.8429 19.5973 23.9566 20.8114 22.8154C22.0254 21.6742 22.9602 20.3145 23.6158 18.7362C24.2957 17.1579 24.6356 15.434 24.6356 13.5643C24.6356 11.6704 24.2957 9.94646 23.6158 8.39248C22.9602 6.81421 22.0133 5.45447 20.775 4.31326C19.5609 3.14777 18.1283 2.26151 16.4772 1.65448C14.8504 1.02317 13.0657 0.70752 11.1232 0.70752H0.815918V10.4867H6.53411L6.53411 5.69728H11.0504C12.6044 5.69728 13.952 6.01293 15.0932 6.64424C16.2587 7.27555 17.1571 8.17395 17.7884 9.33944C18.444 10.5049 18.7718 11.9011 18.7718 13.5279C18.7718 15.1548 18.4561 16.5631 17.8248 17.7528C17.1935 18.9426 16.2951 19.8531 15.1296 20.4844C13.9641 21.0915 12.6044 21.395 11.0504 21.395Z" fill="white"/>
<path d="M11.0504 21.395H6.53411V26.4212H11.1961C13.1143 26.4212 14.8868 26.1055 16.5136 25.4742C18.1647 24.8429 19.5973 23.9566 20.8114 22.8154C22.0254 21.6742 22.9602 20.3145 23.6158 18.7362C24.2957 17.1579 24.6356 15.434 24.6356 13.5643C24.6356 11.6704 24.2957 9.94646 23.6158 8.39248C22.9602 6.81421 22.0133 5.45447 20.775 4.31326C19.5609 3.14777 18.1283 2.26151 16.4772 1.65448C14.8504 1.02317 13.0657 0.70752 11.1232 0.70752H0.815918V10.4867H6.53411L6.53411 5.69728H11.0504C12.6044 5.69728 13.952 6.01293 15.0932 6.64424C16.2587 7.27555 17.1571 8.17395 17.7884 9.33944C18.444 10.5049 18.7718 11.9011 18.7718 13.5279C18.7718 15.1548 18.4561 16.5631 17.8248 17.7528C17.1935 18.9426 16.2951 19.8531 15.1296 20.4844C13.9641 21.0915 12.6044 21.395 11.0504 21.395Z" fill="url(#paint0_linear_34_71)"/>
<path d="M6.53411 12.3078H0.843234L3.57485 18.9092L6.53411 12.3078Z" fill="white"/>
<path d="M6.53411 12.3078H0.843234L3.57485 18.9092L6.53411 12.3078Z" fill="url(#paint1_linear_34_71)"/>
<defs>
<linearGradient id="paint0_linear_34_71" x1="-17.3078" y1="3.75256" x2="20.536" y2="35.7289" gradientUnits="userSpaceOnUse">
<stop offset="0.115933" stop-color="#FB0EC9"/>
<stop offset="0.337661" stop-color="#BE3554"/>
<stop offset="0.587105" stop-color="#6D5DD7"/>
<stop offset="0.75736" stop-color="#25DF90"/>
</linearGradient>
<linearGradient id="paint1_linear_34_71" x1="-17.3078" y1="3.75256" x2="20.536" y2="35.7289" gradientUnits="userSpaceOnUse">
<stop offset="0.115933" stop-color="#FB0EC9"/>
<stop offset="0.337661" stop-color="#BE3554"/>
<stop offset="0.587105" stop-color="#6D5DD7"/>
<stop offset="0.75736" stop-color="#25DF90"/>
</linearGradient>
</defs>
</svg>
