<svg width="16" height="17" viewBox="0 0 16 17" fill="none" xmlns="http://www.w3.org/2000/svg">
<path d="M7.15646 12.9968H4.33379V16.1382H7.24751C8.44639 16.1382 9.55422 15.9409 10.571 15.5463C11.6029 15.1518 12.4983 14.5978 13.2571 13.8846C14.0159 13.1713 14.6001 12.3215 15.0099 11.3351C15.4348 10.3487 15.6472 9.27118 15.6472 8.10265C15.6472 6.91895 15.4348 5.84148 15.0099 4.87024C14.6001 3.88382 14.0083 3.03398 13.2343 2.32072C12.4755 1.59229 11.5802 1.03838 10.5482 0.65899C9.53145 0.264422 8.41604 0.0671387 7.20199 0.0671387H0.759918V6.17914H4.33379L4.33379 3.18574H7.15646C8.1277 3.18574 8.96995 3.38302 9.68321 3.77759C10.4116 4.17216 10.9731 4.73366 11.3677 5.46209C11.7775 6.19052 11.9823 7.06312 11.9823 8.07989C11.9823 9.09666 11.785 9.97685 11.3905 10.7205C10.9959 11.4641 10.4344 12.0332 9.70597 12.4277C8.97754 12.8071 8.1277 12.9968 7.15646 12.9968Z" fill="white"/>
<path d="M7.15646 12.9968H4.33379V16.1382H7.24751C8.44639 16.1382 9.55422 15.9409 10.571 15.5463C11.6029 15.1518 12.4983 14.5978 13.2571 13.8846C14.0159 13.1713 14.6001 12.3215 15.0099 11.3351C15.4348 10.3487 15.6472 9.27118 15.6472 8.10265C15.6472 6.91895 15.4348 5.84148 15.0099 4.87024C14.6001 3.88382 14.0083 3.03398 13.2343 2.32072C12.4755 1.59229 11.5802 1.03838 10.5482 0.65899C9.53145 0.264422 8.41604 0.0671387 7.20199 0.0671387H0.759918V6.17914H4.33379L4.33379 3.18574H7.15646C8.1277 3.18574 8.96995 3.38302 9.68321 3.77759C10.4116 4.17216 10.9731 4.73366 11.3677 5.46209C11.7775 6.19052 11.9823 7.06312 11.9823 8.07989C11.9823 9.09666 11.785 9.97685 11.3905 10.7205C10.9959 11.4641 10.4344 12.0332 9.70597 12.4277C8.97754 12.8071 8.1277 12.9968 7.15646 12.9968Z" fill="url(#paint0_linear_42_77)"/>
<path d="M4.33379 7.31731H0.776991L2.48425 11.4432L4.33379 7.31731Z" fill="white"/>
<path d="M4.33379 7.31731H0.776991L2.48425 11.4432L4.33379 7.31731Z" fill="url(#paint1_linear_42_77)"/>
<defs>
<linearGradient id="paint0_linear_42_77" x1="-10.5674" y1="1.97029" x2="13.085" y2="21.9555" gradientUnits="userSpaceOnUse">
<stop offset="0.115933" stop-color="#FB0EC9"/>
<stop offset="0.337661" stop-color="#BE3554"/>
<stop offset="0.587105" stop-color="#6D5DD7"/>
<stop offset="0.75736" stop-color="#25DF90"/>
</linearGradient>
<linearGradient id="paint1_linear_42_77" x1="-10.5674" y1="1.97029" x2="13.085" y2="21.9555" gradientUnits="userSpaceOnUse">
<stop offset="0.115933" stop-color="#FB0EC9"/>
<stop offset="0.337661" stop-color="#BE3554"/>
<stop offset="0.587105" stop-color="#6D5DD7"/>
<stop offset="0.75736" stop-color="#25DF90"/>
</linearGradient>
</defs>
</svg>
