<svg width="25" height="27" viewBox="0 0 25 27" fill="none" xmlns="http://www.w3.org/2000/svg">
<path d="M11.0504 21.3949H6.53411V26.421H11.1961C13.1143 26.421 14.8868 26.1054 16.5136 25.4741C18.1647 24.8428 19.5973 23.9565 20.8114 22.8153C22.0254 21.6741 22.9602 20.3144 23.6158 18.7361C24.2957 17.1578 24.6356 15.4339 24.6356 13.5642C24.6356 11.6703 24.2957 9.94634 23.6158 8.39235C22.9602 6.81409 22.0133 5.45435 20.775 4.31313C19.5609 3.14764 18.1283 2.26139 16.4772 1.65436C14.8504 1.02305 13.0657 0.707397 11.1232 0.707397H0.815918V10.4866H6.53411L6.53411 5.69716H11.0504C12.6044 5.69716 13.952 6.01281 15.0932 6.64412C16.2587 7.27542 17.1571 8.17382 17.7884 9.33932C18.444 10.5048 18.7718 11.901 18.7718 13.5278C18.7718 15.1546 18.4561 16.5629 17.8248 17.7527C17.1935 18.9425 16.2951 19.853 15.1296 20.4843C13.9641 21.0913 12.6044 21.3949 11.0504 21.3949Z" fill="white"/>
<path d="M11.0504 21.3949H6.53411V26.421H11.1961C13.1143 26.421 14.8868 26.1054 16.5136 25.4741C18.1647 24.8428 19.5973 23.9565 20.8114 22.8153C22.0254 21.6741 22.9602 20.3144 23.6158 18.7361C24.2957 17.1578 24.6356 15.4339 24.6356 13.5642C24.6356 11.6703 24.2957 9.94634 23.6158 8.39235C22.9602 6.81409 22.0133 5.45435 20.775 4.31313C19.5609 3.14764 18.1283 2.26139 16.4772 1.65436C14.8504 1.02305 13.0657 0.707397 11.1232 0.707397H0.815918V10.4866H6.53411L6.53411 5.69716H11.0504C12.6044 5.69716 13.952 6.01281 15.0932 6.64412C16.2587 7.27542 17.1571 8.17382 17.7884 9.33932C18.444 10.5048 18.7718 11.901 18.7718 13.5278C18.7718 15.1546 18.4561 16.5629 17.8248 17.7527C17.1935 18.9425 16.2951 19.853 15.1296 20.4843C13.9641 21.0913 12.6044 21.3949 11.0504 21.3949Z" fill="url(#paint0_linear_34_67)"/>
<path d="M6.53411 12.3077H0.843234L3.57485 18.9091L6.53411 12.3077Z" fill="white"/>
<path d="M6.53411 12.3077H0.843234L3.57485 18.9091L6.53411 12.3077Z" fill="url(#paint1_linear_34_67)"/>
<defs>
<linearGradient id="paint0_linear_34_67" x1="-17.3078" y1="3.75243" x2="20.536" y2="35.7288" gradientUnits="userSpaceOnUse">
<stop offset="0.115933" stop-color="#FB0EC9"/>
<stop offset="0.337661" stop-color="#BE3554"/>
<stop offset="0.587105" stop-color="#6D5DD7"/>
<stop offset="0.75736" stop-color="#25DF90"/>
</linearGradient>
<linearGradient id="paint1_linear_34_67" x1="-17.3078" y1="3.75243" x2="20.536" y2="35.7288" gradientUnits="userSpaceOnUse">
<stop offset="0.115933" stop-color="#FB0EC9"/>
<stop offset="0.337661" stop-color="#BE3554"/>
<stop offset="0.587105" stop-color="#6D5DD7"/>
<stop offset="0.75736" stop-color="#25DF90"/>
</linearGradient>
</defs>
</svg>
