<svg width="16" height="17" viewBox="0 0 16 17" fill="none" xmlns="http://www.w3.org/2000/svg">
<path d="M7.15649 13.2468H4.33382V16.3882H7.24755C8.44642 16.3882 9.55425 16.1909 10.571 15.7963C11.603 15.4018 12.4983 14.8478 13.2571 14.1346C14.0159 13.4213 14.6002 12.5715 15.0099 11.5851C15.4348 10.5987 15.6473 9.52118 15.6473 8.35265C15.6473 7.16895 15.4348 6.09148 15.0099 5.12024C14.6002 4.13382 14.0083 3.28398 13.2343 2.57072C12.4756 1.84229 11.5802 1.28838 10.5483 0.90899C9.53148 0.514422 8.41607 0.317139 7.20202 0.317139H0.759949V6.42914H4.33382L4.33382 3.43574H7.15649C8.12773 3.43574 8.96998 3.63302 9.68324 4.02759C10.4117 4.42216 10.9732 4.98366 11.3677 5.71209C11.7775 6.44052 11.9824 7.31312 11.9824 8.32989C11.9824 9.34666 11.7851 10.2268 11.3905 10.9705C10.9959 11.7141 10.4344 12.2832 9.706 12.6777C8.97757 13.0571 8.12773 13.2468 7.15649 13.2468Z" fill="white"/>
<path d="M7.15649 13.2468H4.33382V16.3882H7.24755C8.44642 16.3882 9.55425 16.1909 10.571 15.7963C11.603 15.4018 12.4983 14.8478 13.2571 14.1346C14.0159 13.4213 14.6002 12.5715 15.0099 11.5851C15.4348 10.5987 15.6473 9.52118 15.6473 8.35265C15.6473 7.16895 15.4348 6.09148 15.0099 5.12024C14.6002 4.13382 14.0083 3.28398 13.2343 2.57072C12.4756 1.84229 11.5802 1.28838 10.5483 0.90899C9.53148 0.514422 8.41607 0.317139 7.20202 0.317139H0.759949V6.42914H4.33382L4.33382 3.43574H7.15649C8.12773 3.43574 8.96998 3.63302 9.68324 4.02759C10.4117 4.42216 10.9732 4.98366 11.3677 5.71209C11.7775 6.44052 11.9824 7.31312 11.9824 8.32989C11.9824 9.34666 11.7851 10.2268 11.3905 10.9705C10.9959 11.7141 10.4344 12.2832 9.706 12.6777C8.97757 13.0571 8.12773 13.2468 7.15649 13.2468Z" fill="url(#paint0_linear_42_485)"/>
<path d="M4.33382 7.56731H0.777021L2.48428 11.6932L4.33382 7.56731Z" fill="white"/>
<path d="M4.33382 7.56731H0.777021L2.48428 11.6932L4.33382 7.56731Z" fill="url(#paint1_linear_42_485)"/>
<defs>
<linearGradient id="paint0_linear_42_485" x1="-10.5674" y1="2.22029" x2="13.085" y2="22.2055" gradientUnits="userSpaceOnUse">
<stop offset="0.115933" stop-color="#FB0EC9"/>
<stop offset="0.337661" stop-color="#BE3554"/>
<stop offset="0.587105" stop-color="#6D5DD7"/>
<stop offset="0.75736" stop-color="#25DF90"/>
</linearGradient>
<linearGradient id="paint1_linear_42_485" x1="-10.5674" y1="2.22029" x2="13.085" y2="22.2055" gradientUnits="userSpaceOnUse">
<stop offset="0.115933" stop-color="#FB0EC9"/>
<stop offset="0.337661" stop-color="#BE3554"/>
<stop offset="0.587105" stop-color="#6D5DD7"/>
<stop offset="0.75736" stop-color="#25DF90"/>
</linearGradient>
</defs>
</svg>
