<svg width="16" height="17" viewBox="0 0 16 17" fill="none" xmlns="http://www.w3.org/2000/svg">
<path d="M7.15655 13.3719H4.33388V16.5133H7.24761C8.44648 16.5133 9.55431 16.316 10.5711 15.9214C11.603 15.5269 12.4984 14.973 13.2572 14.2597C14.016 13.5464 14.6002 12.6966 15.01 11.7102C15.4349 10.7238 15.6473 9.6463 15.6473 8.47778C15.6473 7.29407 15.4349 6.2166 15.01 5.24536C14.6002 4.25894 14.0084 3.4091 13.2344 2.69585C12.4756 1.96741 11.5803 1.4135 10.5483 1.03411C9.53154 0.639545 8.41613 0.442261 7.20208 0.442261H0.76001V6.55426H4.33388L4.33388 3.56086H7.15655C8.12779 3.56086 8.97004 3.75814 9.6833 4.15271C10.4117 4.54728 10.9732 5.10878 11.3678 5.83721C11.7775 6.56564 11.9824 7.43824 11.9824 8.45501C11.9824 9.47178 11.7851 10.352 11.3906 11.0956C10.996 11.8392 10.4345 12.4083 9.70606 12.8028C8.97763 13.1822 8.12779 13.3719 7.15655 13.3719Z" fill="white"/>
<path d="M7.15655 13.3719H4.33388V16.5133H7.24761C8.44648 16.5133 9.55431 16.316 10.5711 15.9214C11.603 15.5269 12.4984 14.973 13.2572 14.2597C14.016 13.5464 14.6002 12.6966 15.01 11.7102C15.4349 10.7238 15.6473 9.6463 15.6473 8.47778C15.6473 7.29407 15.4349 6.2166 15.01 5.24536C14.6002 4.25894 14.0084 3.4091 13.2344 2.69585C12.4756 1.96741 11.5803 1.4135 10.5483 1.03411C9.53154 0.639545 8.41613 0.442261 7.20208 0.442261H0.76001V6.55426H4.33388L4.33388 3.56086H7.15655C8.12779 3.56086 8.97004 3.75814 9.6833 4.15271C10.4117 4.54728 10.9732 5.10878 11.3678 5.83721C11.7775 6.56564 11.9824 7.43824 11.9824 8.45501C11.9824 9.47178 11.7851 10.352 11.3906 11.0956C10.996 11.8392 10.4345 12.4083 9.70606 12.8028C8.97763 13.1822 8.12779 13.3719 7.15655 13.3719Z" fill="url(#paint0_linear_42_508)"/>
<path d="M4.33388 7.69244H0.777082L2.48434 11.8183L4.33388 7.69244Z" fill="white"/>
<path d="M4.33388 7.69244H0.777082L2.48434 11.8183L4.33388 7.69244Z" fill="url(#paint1_linear_42_508)"/>
<defs>
<linearGradient id="paint0_linear_42_508" x1="-10.5673" y1="2.34541" x2="13.0851" y2="22.3306" gradientUnits="userSpaceOnUse">
<stop offset="0.115933" stop-color="#FB0EC9"/>
<stop offset="0.337661" stop-color="#BE3554"/>
<stop offset="0.587105" stop-color="#6D5DD7"/>
<stop offset="0.75736" stop-color="#25DF90"/>
</linearGradient>
<linearGradient id="paint1_linear_42_508" x1="-10.5673" y1="2.34541" x2="13.0851" y2="22.3306" gradientUnits="userSpaceOnUse">
<stop offset="0.115933" stop-color="#FB0EC9"/>
<stop offset="0.337661" stop-color="#BE3554"/>
<stop offset="0.587105" stop-color="#6D5DD7"/>
<stop offset="0.75736" stop-color="#25DF90"/>
</linearGradient>
</defs>
</svg>
