<svg width="121" height="40" viewBox="0 0 121 40" fill="none" xmlns="http://www.w3.org/2000/svg">
<path d="M44.4303 30.1547V27.2865H49.4565C50.7677 27.2865 51.9149 27.0042 52.8983 26.4397C53.8999 25.8752 54.6739 25.0921 55.2202 24.0905C55.7847 23.0707 56.067 21.8961 56.067 20.5667C56.067 19.2555 55.7847 18.0991 55.2202 17.0976C54.6557 16.096 53.8726 15.3129 52.871 14.7484C51.8876 14.1838 50.7494 13.9016 49.4565 13.9016H44.4303V11.0334H49.5384C50.9224 11.0334 52.2063 11.2792 53.39 11.7709C54.5737 12.2444 55.6026 12.9182 56.4767 13.7923C57.3691 14.6482 58.0611 15.6589 58.5528 16.8244C59.0445 17.9717 59.2903 19.2282 59.2903 20.594C59.2903 21.9416 59.0445 23.1982 58.5528 24.3637C58.0611 25.5292 57.3782 26.549 56.5041 27.4231C55.6299 28.279 54.601 28.9528 53.4173 29.4445C52.2336 29.918 50.9589 30.1547 49.5931 30.1547H44.4303ZM42.2723 30.1547V11.0334H45.4137V30.1547H42.2723ZM68.1745 30.4279C66.8633 30.4279 65.6796 30.1365 64.6234 29.5537C63.5854 28.9528 62.7568 28.1333 62.1376 27.0953C61.5366 26.0573 61.2362 24.8918 61.2362 23.5988C61.2362 22.3058 61.5366 21.1495 62.1376 20.1297C62.7386 19.0916 63.5489 18.2721 64.5687 17.6712C65.6068 17.0702 66.754 16.7698 68.0106 16.7698C69.2307 16.7698 70.3051 17.052 71.2339 17.6166C72.1808 18.1811 72.9184 18.9551 73.4465 19.9384C73.9928 20.9218 74.266 22.0418 74.266 23.2983C74.266 23.5169 74.2478 23.7445 74.2114 23.9812C74.1931 24.1998 74.1567 24.4456 74.1021 24.7188H63.3395V22.2603H72.5451L71.4251 23.2437C71.3887 22.4424 71.2339 21.7686 70.9607 21.2223C70.6876 20.676 70.296 20.2571 69.7861 19.9658C69.2944 19.6744 68.6844 19.5287 67.9559 19.5287C67.1911 19.5287 66.5264 19.6926 65.9619 20.0204C65.3973 20.3482 64.9603 20.8126 64.6507 21.4135C64.3411 21.9963 64.1863 22.6974 64.1863 23.5169C64.1863 24.3363 64.3502 25.0557 64.678 25.6748C65.0058 26.294 65.4702 26.7766 66.0711 27.1226C66.6721 27.4504 67.3641 27.6143 68.1472 27.6143C68.821 27.6143 69.4401 27.4959 70.0047 27.2592C70.5874 27.0224 71.0791 26.6764 71.4797 26.2212L73.3919 28.1606C72.7545 28.9073 71.9805 29.4718 71.07 29.8542C70.1594 30.2366 69.1943 30.4279 68.1745 30.4279ZM83.695 30.4279C82.6934 30.4279 81.8011 30.2184 81.018 29.7996C80.2349 29.3625 79.6158 28.7707 79.1605 28.024C78.7234 27.2774 78.5049 26.4306 78.5049 25.4836V21.714C78.5049 20.767 78.7325 19.9202 79.1878 19.1736C79.6431 18.4269 80.2622 17.8442 81.0453 17.4253C81.8284 16.9883 82.7116 16.7698 83.695 16.7698C84.8787 16.7698 85.944 17.0793 86.891 17.6985C87.8561 18.2995 88.6119 19.119 89.1582 20.157C89.7228 21.1768 90.005 22.3332 90.005 23.6261C90.005 24.9009 89.7228 26.0573 89.1582 27.0953C88.6119 28.1151 87.8561 28.9255 86.891 29.5264C85.944 30.1274 84.8787 30.4279 83.695 30.4279ZM83.2033 27.587C83.9317 27.587 84.5691 27.4231 85.1154 27.0953C85.68 26.7493 86.117 26.2758 86.4266 25.6748C86.7544 25.0739 86.9183 24.3819 86.9183 23.5988C86.9183 22.8157 86.7544 22.1237 86.4266 21.5228C86.117 20.9218 85.68 20.4574 85.1154 20.1297C84.5691 19.7836 83.9317 19.6106 83.2033 19.6106C82.4749 19.6106 81.8284 19.7836 81.2638 20.1297C80.6993 20.4574 80.2622 20.9218 79.9527 21.5228C79.6431 22.1237 79.4883 22.8157 79.4883 23.5988C79.4883 24.3819 79.6431 25.0739 79.9527 25.6748C80.2622 26.2758 80.6993 26.7493 81.2638 27.0953C81.8284 27.4231 82.4749 27.587 83.2033 27.587ZM76.6747 30.1547V10.487H79.6795V20.2662L79.1605 23.4349L79.6795 26.6309V30.1547H76.6747ZM92.5202 30.1547V10.487H95.525V30.1547H92.5202ZM98.8964 30.1547V17.0429H101.901V30.1547H98.8964ZM100.399 14.6391C99.8889 14.6391 99.461 14.4661 99.115 14.1201C98.7872 13.7741 98.6233 13.3461 98.6233 12.8362C98.6233 12.3263 98.7872 11.8984 99.115 11.5524C99.461 11.2064 99.8889 11.0334 100.399 11.0334C100.927 11.0334 101.355 11.2064 101.683 11.5524C102.01 11.8984 102.174 12.3263 102.174 12.8362C102.174 13.3461 102.01 13.7741 101.683 14.1201C101.355 14.4661 100.927 14.6391 100.399 14.6391ZM109.56 30.4279C108.832 30.4279 108.13 30.3368 107.457 30.1547C106.783 29.9544 106.164 29.6812 105.599 29.3352C105.035 28.971 104.543 28.5339 104.124 28.024L106.036 26.1119C106.491 26.64 107.01 27.0406 107.593 27.3138C108.194 27.5688 108.868 27.6962 109.615 27.6962C110.288 27.6962 110.798 27.5961 111.144 27.3958C111.49 27.1954 111.663 26.9041 111.663 26.5216C111.663 26.121 111.499 25.8114 111.172 25.5929C110.844 25.3744 110.416 25.1923 109.888 25.0466C109.378 24.8827 108.832 24.7188 108.249 24.5549C107.684 24.391 107.138 24.1724 106.61 23.8993C106.1 23.6079 105.681 23.2164 105.353 22.7247C105.026 22.233 104.862 21.5956 104.862 20.8126C104.862 19.9749 105.053 19.2555 105.435 18.6546C105.836 18.0536 106.391 17.5892 107.102 17.2614C107.83 16.9337 108.695 16.7698 109.697 16.7698C110.753 16.7698 111.682 16.961 112.483 17.3434C113.302 17.7076 113.985 18.263 114.532 19.0097L112.619 20.9218C112.237 20.4483 111.8 20.0932 111.308 19.8565C110.817 19.6197 110.252 19.5014 109.615 19.5014C109.014 19.5014 108.549 19.5924 108.222 19.7745C107.894 19.9566 107.73 20.2207 107.73 20.5667C107.73 20.9309 107.894 21.2132 108.222 21.4135C108.549 21.6138 108.968 21.7868 109.478 21.9325C110.006 22.0782 110.552 22.2421 111.117 22.4242C111.7 22.5881 112.246 22.8248 112.756 23.1344C113.284 23.4258 113.712 23.8264 114.04 24.3363C114.368 24.828 114.532 25.4745 114.532 26.2758C114.532 27.5505 114.085 28.5612 113.193 29.3079C112.301 30.0545 111.09 30.4279 109.56 30.4279Z" fill="white"/>
<path d="M17.0504 28.3949H12.5341V33.421H17.196C19.1142 33.421 20.8868 33.1054 22.5136 32.4741C24.1647 31.8428 25.5973 30.9565 26.8113 29.8153C28.0254 28.6741 28.9602 27.3144 29.6158 25.7361C30.2957 24.1578 30.6356 22.4339 30.6356 20.5642C30.6356 18.6703 30.2957 16.9463 29.6158 15.3924C28.9602 13.8141 28.0133 12.4543 26.7749 11.3131C25.5609 10.1476 24.1283 9.26139 22.4772 8.65436C20.8503 8.02305 19.0657 7.7074 17.1232 7.7074H6.81589V17.4866H12.5341L12.5341 12.6972H17.0504C18.6043 12.6972 19.9519 13.0128 21.0932 13.6441C22.2586 14.2754 23.157 15.1738 23.7884 16.3393C24.4439 17.5048 24.7717 18.901 24.7717 20.5278C24.7717 22.1546 24.4561 23.5629 23.8248 24.7527C23.1935 25.9425 22.2951 26.853 21.1296 27.4843C19.9641 28.0913 18.6043 28.3949 17.0504 28.3949Z" fill="white"/>
<path d="M17.0504 28.3949H12.5341V33.421H17.196C19.1142 33.421 20.8868 33.1054 22.5136 32.4741C24.1647 31.8428 25.5973 30.9565 26.8113 29.8153C28.0254 28.6741 28.9602 27.3144 29.6158 25.7361C30.2957 24.1578 30.6356 22.4339 30.6356 20.5642C30.6356 18.6703 30.2957 16.9463 29.6158 15.3924C28.9602 13.8141 28.0133 12.4543 26.7749 11.3131C25.5609 10.1476 24.1283 9.26139 22.4772 8.65436C20.8503 8.02305 19.0657 7.7074 17.1232 7.7074H6.81589V17.4866H12.5341L12.5341 12.6972H17.0504C18.6043 12.6972 19.9519 13.0128 21.0932 13.6441C22.2586 14.2754 23.157 15.1738 23.7884 16.3393C24.4439 17.5048 24.7717 18.901 24.7717 20.5278C24.7717 22.1546 24.4561 23.5629 23.8248 24.7527C23.1935 25.9425 22.2951 26.853 21.1296 27.4843C19.9641 28.0913 18.6043 28.3949 17.0504 28.3949Z" fill="url(#paint0_linear_2_32)"/>
<path d="M12.5341 19.3077H6.8432L9.57482 25.9091L12.5341 19.3077Z" fill="white"/>
<path d="M12.5341 19.3077H6.8432L9.57482 25.9091L12.5341 19.3077Z" fill="url(#paint1_linear_2_32)"/>
<defs>
<linearGradient id="paint0_linear_2_32" x1="-11.3078" y1="10.7524" x2="26.536" y2="42.7288" gradientUnits="userSpaceOnUse">
<stop offset="0.115933" stop-color="#FB0EC9"/>
<stop offset="0.337661" stop-color="#BE3554"/>
<stop offset="0.587105" stop-color="#6D5DD7"/>
<stop offset="0.75736" stop-color="#25DF90"/>
</linearGradient>
<linearGradient id="paint1_linear_2_32" x1="-11.3078" y1="10.7524" x2="26.536" y2="42.7288" gradientUnits="userSpaceOnUse">
<stop offset="0.115933" stop-color="#FB0EC9"/>
<stop offset="0.337661" stop-color="#BE3554"/>
<stop offset="0.587105" stop-color="#6D5DD7"/>
<stop offset="0.75736" stop-color="#25DF90"/>
</linearGradient>
</defs>
</svg>
